<svg xmlns="http://www.w3.org/2000/svg" version="1.1" xmlns:xlink="http://www.w3.org/1999/xlink" width="1000" height="1000"><metadata><rdf:RDF xmlns:rdf="http://www.w3.org/1999/02/22-rdf-syntax-ns#" xmlns:dc="http://purl.org/dc/elements/1.1/"><rdf:Description><dc:creator>RealFaviconGenerator</dc:creator><dc:source>https://realfavicongenerator.net</dc:source></rdf:Description></rdf:RDF></metadata><g clip-path="url(#SvgjsClipPath1251)"><rect width="1000" height="1000" fill="#ffffff"></rect><g transform="matrix(14.583333333333334,0,0,14.583333333333334,150,150)"><svg xmlns="http://www.w3.org/2000/svg" height="48px" viewBox="0 -960 960 960" width="48px" fill="#000000"><path d="M105.87-168.3v-602.13q0-35.07 24.24-59.67t59.6-24.6h34.81q26.61 0 48.37 15.11 21.76 15.11 30.89 40.2L480-320.31l175.35-474.52q9.81-26.82 32.43-43.34 22.61-16.53 51.46-16.53h26.31q37.35 0 63.25 26.11 25.9 26.1 25.9 63.16v597.13q0 26.29-18.26 44.36t-44.83 18.07q-26.57 0-44.46-18.07t-17.89-44.36v-466.05L546.3-140.65q-5.56 15.39-18.8 24.59-13.23 9.19-30.06 9.19h-35.97q-16.6 0-29.97-9.48-13.37-9.48-18.94-24.87L231.3-630.35v462.05q0 26.29-18.25 44.36-18.26 18.07-44.83 18.07-26.57 0-44.46-18.07t-17.89-44.36Z"></path></svg></g></g><defs><clipPath id="SvgjsClipPath1251"><rect width="1000" height="1000" x="0" y="0" rx="300" ry="300"></rect></clipPath></defs></svg>